<svg xmlns="http://www.w3.org/2000/svg" width="36" height="36" viewBox="0 0 36 36" data-prefix="fas">
  <g id="Group_2106" data-name="Group 2106" transform="translate(-5139 1349)">
    <rect id="Rectangle_22" data-name="Rectangle 22" width="36" height="36" transform="translate(5139 -1349)" fill="none"/>
    <path id="Shape" d="M25.916,21.777a1.073,1.073,0,0,1,0,2.147H9.145a3.1,3.1,0,0,1-3.017-2.718L4.377,8.854l-1-5.775A1.011,1.011,0,0,0,2.45,2.2H1.135a1.074,1.074,0,0,1,0-2.148H2.45A3.121,3.121,0,0,1,5.5,2.768l1,5.752L8.254,20.926a.969.969,0,0,0,.891.851Zm2.4-17.683a3.4,3.4,0,0,1,.769,2.67l-1.627,9.323a3.071,3.071,0,0,1-3.008,2.664L10.516,19.783a1.076,1.076,0,0,1-.89-1.772,1.055,1.055,0,0,1,.732-.369l14.011-1.036a1,1,0,0,0,.967-.835L26.96,6.449a1.245,1.245,0,0,0-.253-.934.6.6,0,0,0-.466-.214H8.362a1.074,1.074,0,0,1,0-2.148H26.242a2.731,2.731,0,0,1,2.07.939Zm-18.9,25a2.109,2.109,0,1,1,2.051-2.108A2.108,2.108,0,0,1,9.412,29.1Zm14.457,0a2.109,2.109,0,1,1,2.051-2.108A2.109,2.109,0,0,1,23.869,29.1Z" transform="translate(5142.314 -1345.646)" fill="#f9ba32"/>
    <path id="Path_1110" data-name="Path 1110" d="M5149.743-1341.294l2.529,14.577,15.777-1.371s2.408-10.285,2.426-10.59-.491-2.615-.491-2.615h-20.242Z" fill="#f9ba32"/>
  </g>
</svg>